Coordinates
version=1
nRows=50
nColumns=16
inDegrees=yes
endheader
time	elbow_flexion_r	elbow_flexion_l	shoulder_elv_r	shoulder_elv_l	elv_angle_r	elv_angle_l	shoulder_rot_r	shoulder_rot_l	pro_sup_r	pro_sup_l	hip_flexion_r	hip_flexion_l	knee_angle_r	knee_angle_l	lumbar_extension
0.000000	90.000000	90.000000	170.000000	170.000000	90.000000	90.000000	0.000000	0.000000	0.000000	0.000000	0.000000	0.000000	0.000000	0.000000	0.000000
0.040816	88.265306	88.265306	170.000000	170.000000	90.000000	90.000000	0.000000	0.000000	0.000000	0.000000	0.000000	0.000000	0.000000	0.000000	0.000000
0.081633	86.530612	86.530612	170.000000	170.000000	90.000000	90.000000	0.000000	0.000000	0.000000	0.000000	0.000000	0.000000	0.000000	0.000000	0.000000
0.122449	84.795918	84.795918	170.000000	170.000000	90.000000	90.000000	0.000000	0.000000	0.000000	0.000000	0.000000	0.000000	0.000000	0.000000	0.000000
0.163265	83.061224	83.061224	170.000000	170.000000	90.000000	90.000000	0.000000	0.000000	0.000000	0.000000	0.000000	0.000000	0.000000	0.000000	0.000000
0.204082	81.326531	81.326531	170.000000	170.000000	90.000000	90.000000	0.000000	0.000000	0.000000	0.000000	0.000000	0.000000	0.000000	0.000000	0.000000
0.244898	79.591837	79.591837	170.000000	170.000000	90.000000	90.000000	0.000000	0.000000	0.000000	0.000000	0.000000	0.000000	0.000000	0.000000	0.000000
0.285714	77.857143	77.857143	170.000000	170.000000	90.000000	90.000000	0.000000	0.000000	0.000000	0.000000	0.000000	0.000000	0.000000	0.000000	0.000000
0.326531	76.122449	76.122449	170.000000	170.000000	90.000000	90.000000	0.000000	0.000000	0.000000	0.000000	0.000000	0.000000	0.000000	0.000000	0.000000
0.367347	74.387755	74.387755	170.000000	170.000000	90.000000	90.000000	0.000000	0.000000	0.000000	0.000000	0.000000	0.000000	0.000000	0.000000	0.000000
0.408163	72.653061	72.653061	170.000000	170.000000	90.000000	90.000000	0.000000	0.000000	0.000000	0.000000	0.000000	0.000000	0.000000	0.000000	0.000000
0.448980	70.918367	70.918367	170.000000	170.000000	90.000000	90.000000	0.000000	0.000000	0.000000	0.000000	0.000000	0.000000	0.000000	0.000000	0.000000
0.489796	69.183673	69.183673	170.000000	170.000000	90.000000	90.000000	0.000000	0.000000	0.000000	0.000000	0.000000	0.000000	0.000000	0.000000	0.000000
0.530612	67.448980	67.448980	170.000000	170.000000	90.000000	90.000000	0.000000	0.000000	0.000000	0.000000	0.000000	0.000000	0.000000	0.000000	0.000000
0.571429	65.714286	65.714286	170.000000	170.000000	90.000000	90.000000	0.000000	0.000000	0.000000	0.000000	0.000000	0.000000	0.000000	0.000000	0.000000
0.612245	63.979592	63.979592	170.000000	170.000000	90.000000	90.000000	0.000000	0.000000	0.000000	0.000000	0.000000	0.000000	0.000000	0.000000	0.000000
0.653061	62.244898	62.244898	170.000000	170.000000	90.000000	90.000000	0.000000	0.000000	0.000000	0.000000	0.000000	0.000000	0.000000	0.000000	0.000000
0.693878	60.510204	60.510204	170.000000	170.000000	90.000000	90.000000	0.000000	0.000000	0.000000	0.000000	0.000000	0.000000	0.000000	0.000000	0.000000
0.734694	58.775510	58.775510	170.000000	170.000000	90.000000	90.000000	0.000000	0.000000	0.000000	0.000000	0.000000	0.000000	0.000000	0.000000	0.000000
0.775510	57.040816	57.040816	170.000000	170.000000	90.000000	90.000000	0.000000	0.000000	0.000000	0.000000	0.000000	0.000000	0.000000	0.000000	0.000000
0.816327	55.306122	55.306122	170.000000	170.000000	90.000000	90.000000	0.000000	0.000000	0.000000	0.000000	0.000000	0.000000	0.000000	0.000000	0.000000
0.857143	53.571429	53.571429	170.000000	170.000000	90.000000	90.000000	0.000000	0.000000	0.000000	0.000000	0.000000	0.000000	0.000000	0.000000	0.000000
0.897959	51.836735	51.836735	170.000000	170.000000	90.000000	90.000000	0.000000	0.000000	0.000000	0.000000	0.000000	0.000000	0.000000	0.000000	0.000000
0.938776	50.102041	50.102041	170.000000	170.000000	90.000000	90.000000	0.000000	0.000000	0.000000	0.000000	0.000000	0.000000	0.000000	0.000000	0.000000
0.979592	48.367347	48.367347	170.000000	170.000000	90.000000	90.000000	0.000000	0.000000	0.000000	0.000000	0.000000	0.000000	0.000000	0.000000	0.000000
1.020408	46.632653	46.632653	170.000000	170.000000	90.000000	90.000000	0.000000	0.000000	0.000000	0.000000	0.000000	0.000000	0.000000	0.000000	0.000000
1.061224	44.897959	44.897959	170.000000	170.000000	90.000000	90.000000	0.000000	0.000000	0.000000	0.000000	0.000000	0.000000	0.000000	0.000000	0.000000
1.102041	43.163265	43.163265	170.000000	170.000000	90.000000	90.000000	0.000000	0.000000	0.000000	0.000000	0.000000	0.000000	0.000000	0.000000	0.000000
1.142857	41.428571	41.428571	170.000000	170.000000	90.000000	90.000000	0.000000	0.000000	0.000000	0.000000	0.000000	0.000000	0.000000	0.000000	0.000000
1.183673	39.693878	39.693878	170.000000	170.000000	90.000000	90.000000	0.000000	0.000000	0.000000	0.000000	0.000000	0.000000	0.000000	0.000000	0.000000
1.224490	37.959184	37.959184	170.000000	170.000000	90.000000	90.000000	0.000000	0.000000	0.000000	0.000000	0.000000	0.000000	0.000000	0.000000	0.000000
1.265306	36.224490	36.224490	170.000000	170.000000	90.000000	90.000000	0.000000	0.000000	0.000000	0.000000	0.000000	0.000000	0.000000	0.000000	0.000000
1.306122	34.489796	34.489796	170.000000	170.000000	90.000000	90.000000	0.000000	0.000000	0.000000	0.000000	0.000000	0.000000	0.000000	0.000000	0.000000
1.346939	32.755102	32.755102	170.000000	170.000000	90.000000	90.000000	0.000000	0.000000	0.000000	0.000000	0.000000	0.000000	0.000000	0.000000	0.000000
1.387755	31.020408	31.020408	170.000000	170.000000	90.000000	90.000000	0.000000	0.000000	0.000000	0.000000	0.000000	0.000000	0.000000	0.000000	0.000000
1.428571	29.285714	29.285714	170.000000	170.000000	90.000000	90.000000	0.000000	0.000000	0.000000	0.000000	0.000000	0.000000	0.000000	0.000000	0.000000
1.469388	27.551020	27.551020	170.000000	170.000000	90.000000	90.000000	0.000000	0.000000	0.000000	0.000000	0.000000	0.000000	0.000000	0.000000	0.000000
1.510204	25.816327	25.816327	170.000000	170.000000	90.000000	90.000000	0.000000	0.000000	0.000000	0.000000	0.000000	0.000000	0.000000	0.000000	0.000000
1.551020	24.081633	24.081633	170.000000	170.000000	90.000000	90.000000	0.000000	0.000000	0.000000	0.000000	0.000000	0.000000	0.000000	0.000000	0.000000
1.591837	22.346939	22.346939	170.000000	170.000000	90.000000	90.000000	0.000000	0.000000	0.000000	0.000000	0.000000	0.000000	0.000000	0.000000	0.000000
1.632653	20.612245	20.612245	170.000000	170.000000	90.000000	90.000000	0.000000	0.000000	0.000000	0.000000	0.000000	0.000000	0.000000	0.000000	0.000000
1.673469	18.877551	18.877551	170.000000	170.000000	90.000000	90.000000	0.000000	0.000000	0.000000	0.000000	0.000000	0.000000	0.000000	0.000000	0.000000
1.714286	17.142857	17.142857	170.000000	170.000000	90.000000	90.000000	0.000000	0.000000	0.000000	0.000000	0.000000	0.000000	0.000000	0.000000	0.000000
1.755102	15.408163	15.408163	170.000000	170.000000	90.000000	90.000000	0.000000	0.000000	0.000000	0.000000	0.000000	0.000000	0.000000	0.000000	0.000000
1.795918	13.673469	13.673469	170.000000	170.000000	90.000000	90.000000	0.000000	0.000000	0.000000	0.000000	0.000000	0.000000	0.000000	0.000000	0.000000
1.836735	11.938776	11.938776	170.000000	170.000000	90.000000	90.000000	0.000000	0.000000	0.000000	0.000000	0.000000	0.000000	0.000000	0.000000	0.000000
1.877551	10.204082	10.204082	170.000000	170.000000	90.000000	90.000000	0.000000	0.000000	0.000000	0.000000	0.000000	0.000000	0.000000	0.000000	0.000000
1.918367	8.469388	8.469388	170.000000	170.000000	90.000000	90.000000	0.000000	0.000000	0.000000	0.000000	0.000000	0.000000	0.000000	0.000000	0.000000
1.959184	6.734694	6.734694	170.000000	170.000000	90.000000	90.000000	0.000000	0.000000	0.000000	0.000000	0.000000	0.000000	0.000000	0.000000	0.000000
2.000000	5.000000	5.000000	170.000000	170.000000	90.000000	90.000000	0.000000	0.000000	0.000000	0.000000	0.000000	0.000000	0.000000	0.000000	0.000000
